<svg width="36" height="36" viewBox="0 0 36 36" fill="none" xmlns="http://www.w3.org/2000/svg">
<path d="M27.3913 7.04345C27.8235 7.04345 28.1739 7.39383 28.1739 7.82606C28.1739 8.25828 27.8235 8.60866 27.3913 8.60866H8.60866C8.17644 8.60866 7.82606 8.25828 7.82606 7.82606C7.82606 7.39383 8.17644 7.04345 8.60866 7.04345H27.3913Z" fill="#5272FF"/>
<path fill-rule="evenodd" clip-rule="evenodd" d="M29.7391 1.56519C32.3324 1.56519 34.4348 3.6675 34.4348 6.26084V29.7391C34.4348 32.2514 32.4617 34.3029 29.9806 34.4286L29.7391 34.4348H6.26084L6.01933 34.4286C3.61822 34.307 1.69295 32.3817 1.5713 29.9806L1.56519 29.7391V6.26084C1.56519 3.6675 3.6675 1.56519 6.26084 1.56519H29.7391ZM3.1304 29.7391C3.1304 31.468 4.53195 32.8695 6.26084 32.8695H9.39127V28.1739H3.1304V29.7391ZM10.9565 32.8695H17.2174V28.1739H10.9565V32.8695ZM18.7826 32.8695H25.0434V28.1739H18.7826V32.8695ZM26.6087 32.8695H29.7391C31.468 32.8695 32.8695 31.468 32.8695 29.7391V28.1739H26.6087V32.8695ZM3.1304 26.6087H9.39127V23.4782H3.1304V26.6087ZM10.9565 26.6087H17.2174V23.4782H10.9565V26.6087ZM18.7826 26.6087H25.0434V23.4782H18.7826V26.6087ZM26.6087 26.6087H32.8695V23.4782H26.6087V26.6087ZM3.1304 21.913H9.39127V18.7826H3.1304V21.913ZM10.9565 21.913H17.2174V18.7826H10.9565V21.913ZM18.7826 21.913H25.0434V18.7826H18.7826V21.913ZM26.6087 21.913H32.8695V18.7826H26.6087V21.913ZM3.1304 17.2174H17.2174V14.0869H3.1304V17.2174ZM18.7826 17.2174H32.8695V14.0869H18.7826V17.2174ZM6.26084 3.1304C4.58603 3.1304 3.21814 4.44562 3.13422 6.09958L3.1304 6.26084V12.5217H32.8695V6.26084C32.8695 4.58603 31.5543 3.21814 29.9004 3.13422L29.7391 3.1304H6.26084Z" fill="#5272FF"/>
</svg>
