<svg width="17" height="10" viewBox="0 0 17 10" fill="none" xmlns="http://www.w3.org/2000/svg">
<path d="M16.8012 0.934525C16.8016 1.0572 16.7777 1.17875 16.731 1.29217C16.6842 1.40558 16.6154 1.50861 16.5286 1.59533L9.06198 9.06199C8.88592 9.23572 8.64852 9.33313 8.40118 9.33313C8.15383 9.33313 7.91644 9.23572 7.74038 9.06199L0.273712 1.59533C0.0984573 1.42007 0 1.18237 0 0.934525C0 0.686677 0.0984573 0.44898 0.273712 0.273726C0.448967 0.0984707 0.686664 1.33514e-05 0.934512 1.33514e-05C1.18236 1.33514e-05 1.42006 0.0984707 1.59531 0.273726L8.40118 7.09453L15.207 0.273726C15.3831 0.0999947 15.6205 0.00258827 15.8678 0.00258827C16.1152 0.00258827 16.3526 0.0999947 16.5286 0.273726C16.6154 0.360438 16.6842 0.46347 16.731 0.576883C16.7777 0.690296 16.8016 0.811847 16.8012 0.934525Z" fill="#1F1F1F"/>
</svg>
